<svg xmlns="http://www.w3.org/2000/svg" width="192" height="220" viewBox="0 0 192 220" fill="none"><path d="M131.06 180.861C124.027 175.179 122.043 168.277 121.91 165.479C124.399 164.197 131.338 162.516 139.775 165.765C148.316 169.054 149.417 177.303 148.911 181.062C145.908 183.381 138.178 186.613 131.06 180.861Z" fill="#3B8E46"></path><path d="M122.092 166.026C121.969 165.956 121.927 165.799 121.998 165.677L122.126 165.456C122.196 165.334 122.353 165.292 122.475 165.362L153.011 182.993L152.628 183.656L122.092 166.026Z" fill="#3B8E46"></path><path d="M118.104 142.693C109.763 133.119 108.702 123.09 109.2 119.187C112.956 118.021 122.962 117.389 133.84 123.94C144.85 130.572 144.362 142.249 142.744 147.325C138.026 149.8 126.547 152.385 118.104 142.693Z" fill="#3B8E46"></path><path d="M109.318 119.988C109.166 119.861 109.146 119.635 109.274 119.483L109.504 119.208C109.632 119.056 109.858 119.036 110.01 119.164L147.945 150.995L147.253 151.82L109.318 119.988Z" fill="#3B8E46"></path><path d="M103.504 111.013C92.3937 107.201 86.905 99.657 85.4988 96.2996C87.9679 93.6285 95.6922 88.4938 107.436 88.7112C119.324 88.9312 124.334 98.5122 125.386 103.327C122.751 107.492 114.75 114.872 103.504 111.013Z" fill="#3B8E46"></path><path d="M85.9637 96.8873C85.7831 96.8554 85.6626 96.6833 85.6944 96.5027L85.7521 96.1758C85.7839 95.9953 85.9561 95.8747 86.1366 95.9065L131.25 103.861L131.077 104.842L85.9637 96.8873Z" fill="#3B8E46"></path><path d="M173.951 200.247C180.514 192.713 181.349 184.822 180.957 181.75C178.002 180.833 170.128 180.335 161.568 185.49C152.904 190.709 153.289 199.897 154.561 203.892C158.275 205.839 167.307 207.873 173.951 200.247Z" fill="#3B8E46"></path><path d="M180.864 182.381C180.984 182.281 180.999 182.103 180.899 181.983L180.717 181.767C180.617 181.647 180.439 181.632 180.32 181.732L150.469 206.779L151.014 207.428L180.864 182.381Z" fill="#3B8E46"></path><path d="M176.822 153.88C183.377 142.996 182.68 132.928 181.511 129.168C177.608 128.672 167.636 129.788 158.056 138.134C148.357 146.582 150.868 158.005 153.344 162.726C158.424 164.345 170.185 164.898 176.822 153.88Z" fill="#3B8E46"></path><path d="M181.535 129.978C181.662 129.826 181.642 129.6 181.49 129.473L181.215 129.242C181.063 129.114 180.837 129.134 180.709 129.286L148.857 167.247L149.682 167.939L181.535 129.978Z" fill="#3B8E46"></path><path d="M169.599 106.237C176.701 94.4458 175.946 83.5392 174.679 79.466C170.451 78.928 159.649 80.137 149.269 89.1787C138.763 98.3314 141.483 110.706 144.165 115.821C149.668 117.575 162.41 118.174 169.599 106.237Z" fill="#3B8E46"></path><path d="M174.705 80.3437C174.843 80.1791 174.821 79.9338 174.657 79.7957L174.359 79.5456C174.194 79.4075 173.949 79.429 173.811 79.5935L139.304 120.717L140.198 121.467L174.705 80.3437Z" fill="#3B8E46"></path><path d="M135.547 74.6964C140.503 66.4674 139.976 58.8559 139.092 56.0133C136.141 55.6379 128.603 56.4816 121.359 62.7916C114.027 69.1791 115.925 77.815 117.797 81.3844C121.638 82.6084 130.53 83.0265 135.547 74.6964Z" fill="#3B8E46"></path><path d="M139.11 56.6259C139.206 56.511 139.191 56.3398 139.077 56.2434L138.869 56.0689C138.754 55.9725 138.583 55.9875 138.486 56.1023L114.405 84.8017L115.028 85.3253L139.11 56.6259Z" fill="#3B8E46"></path><path d="M114.435 53.9742C116.278 44.5463 113.179 37.574 111.376 35.2052C108.475 35.8617 101.679 39.233 97.031 47.6398C92.3255 56.1498 97.0629 63.6158 100.043 66.3297C104.07 66.1663 112.569 63.5179 114.435 53.9742Z" fill="#3B8E46"></path><path d="M111.602 35.7748C111.654 35.6339 111.581 35.4781 111.44 35.4268L111.185 35.334C111.044 35.2827 110.888 35.3553 110.837 35.4962L98.0235 70.7012L98.7888 70.9798L111.602 35.7748Z" fill="#3B8E46"></path><path d="M94.5592 32.5946C92.5765 19.9906 85.5421 12.6962 82.216 10.5587C78.8928 12.6962 71.943 19.9906 69.9604 32.5946C67.9534 45.3534 77.2576 52.5195 82.2092 54.5532C87.1621 52.5195 96.5661 45.3534 94.5592 32.5946Z" fill="#3B8E46"></path><path d="M82.7569 11.1668C82.7569 10.9677 82.5954 10.8063 82.3963 10.8063H82.0357C81.8366 10.8063 81.6751 10.9677 81.6751 11.1668V60.9264H82.7569V11.1668Z" fill="#3B8E46"></path><path d="M60.999 20.9078C54.8251 9.74205 45.7201 5.29339 41.8635 4.42246C39.4718 7.5676 35.436 16.7991 37.8837 29.3211C40.3615 41.9968 51.5555 45.5485 56.9041 45.766C60.8627 42.161 67.2487 32.2107 60.999 20.9078Z" fill="#3B8E46"></path><path d="M42.5797 4.80891C42.5116 4.62177 42.3047 4.52529 42.1176 4.5934L41.7788 4.71673C41.5916 4.78484 41.4951 4.99175 41.5632 5.17888L58.582 51.9375L59.5985 51.5676L42.5797 4.80891Z" fill="#3B8E46"></path><path d="M22.1489 38.1016C9.54495 40.0843 2.25049 47.1186 0.11303 50.4448C2.25049 53.768 9.54495 60.7177 22.1489 62.7004C34.9077 64.7074 42.0738 55.4032 44.1075 50.4515C42.0738 45.4987 34.9077 36.0946 22.1489 38.1016Z" fill="#3B8E46"></path><path d="M0.721151 49.9039C0.522011 49.9039 0.360576 50.0653 0.360576 50.2645V50.6251C0.360576 50.8242 0.522012 50.9856 0.721153 50.9856H50.4807V49.9039H0.721151Z" fill="#3B8E46"></path><path d="M88.569 92.0937C79.216 93.922 72.2991 90.8482 69.9492 89.0596C70.6005 86.1812 73.9449 79.4398 82.2849 74.8283C90.7273 70.1603 98.1339 74.86 100.826 77.8159C100.664 81.8118 98.0368 90.243 88.569 92.0937Z" fill="#3B8E46"></path><path d="M70.5142 89.284C70.3744 89.3348 70.2199 89.2628 70.169 89.123L70.0769 88.8699C70.026 88.7301 70.0981 88.5756 70.2378 88.5247L105.163 75.8129L105.439 76.5722L70.5142 89.284Z" fill="#3B8E46"></path><path d="M62.6126 76.0662C54.4489 80.9831 46.8979 80.4604 44.078 79.5834C43.7055 76.6558 44.5425 69.1771 50.8024 61.9913C57.1391 54.7173 65.7064 56.6004 69.2474 58.4572C70.4617 62.2675 70.8765 71.0889 62.6126 76.0662Z" fill="#3B8E46"></path><path d="M44.6856 79.601C44.5717 79.6966 44.4018 79.6817 44.3062 79.5678L44.1331 79.3615C44.0374 79.2475 44.0523 79.0776 44.1663 78.982L72.6376 55.0917L73.157 55.7107L44.6856 79.601Z" fill="#3B8E46"></path><path d="M149.867 219.076C154.43 188.411 153.59 118.046 113.726 81.9056C99.4889 69.2199 64.4981 45.3817 38.4331 51.5146" stroke="#3D9448" stroke-width="5"></path></svg>