<?xml version="1.0" encoding="UTF-8"?>
<svg xmlns="http://www.w3.org/2000/svg" width="201" height="19" viewBox="0 0 201 19" fill="none">
  <path d="M191.922 8.33646C192.645 3.59254 195.212 0.847045 196.426 0.0425424C197.639 0.847045 200.175 3.59254 200.898 8.33646C201.63 13.1386 198.235 15.8358 196.428 16.6012C194.621 15.8358 191.189 13.1386 191.922 8.33646Z" fill="#326238"></path>
  <path d="M196.229 0.271428C196.229 0.196475 196.287 0.135714 196.36 0.135714H196.492C196.564 0.135714 196.623 0.196476 196.623 0.271429V19H196.229V0.271428Z" fill="#326238"></path>
  <path d="M6.7057 14.0209V8.86207H21.0055C21.5786 8.86207 22.0562 8.77363 22.4383 8.59676C22.8395 8.40024 23.0401 7.99736 23.0401 7.38813C23.0401 6.75925 22.8395 6.35637 22.4383 6.1795C22.0562 6.00263 21.5786 5.91419 21.0055 5.91419H7.16421V18.8849H0V0.0184326H19.8879C21.3207 0.0184326 22.658 0.126522 23.8998 0.3427C25.1607 0.539225 26.2592 0.902797 27.1953 1.43342C28.1315 1.96403 28.867 2.71083 29.4019 3.6738C29.9369 4.63678 30.2043 5.87489 30.2043 7.38813C30.2043 8.90138 29.9369 10.1002 29.4019 10.9845C28.867 11.8689 28.1315 12.5273 27.1953 12.9596C26.2592 13.392 25.1607 13.6769 23.8998 13.8145C22.658 13.9521 21.3207 14.0209 19.8879 14.0209H6.7057Z" fill="#DC9F96"></path>
  <path d="M40.9437 0.0184326V13.2839H57.6506V18.8849H33.7795V0.0184326H40.9437Z" fill="#DC9F96"></path>
  <path d="M65.5129 16.0254V11.6036H85.1142V16.0254H65.5129ZM59.0938 18.8849L71.3876 0.0184326H79.3542L91.7626 18.8849H83.882L73.2503 1.99351H77.5201L66.9744 18.8849H59.0938Z" fill="#DC9F96"></path>
  <path d="M122.802 13.107L120.137 14.6694V0.0184326H127.302V18.8849H120.137L98.5587 6.03211L101.224 4.44025V18.8849H94.0596V0.0184326H101.224L122.802 13.107Z" fill="#DC9F96"></path>
  <path d="M130.162 0.0184326H159.965V5.6194H130.162V0.0184326ZM141.481 5.23618H148.645V18.8849H141.481V5.23618Z" fill="#DC9F96"></path>
  <path d="M191.613 0.0184326L180.007 14.0798V18.8849H172.842V14.0798L161.236 0.0184326H169.69L179.118 12.2521H173.817L183.159 0.0184326H191.613Z" fill="#DC9F96"></path>
</svg>
