<?xml version="1.0" encoding="UTF-8"?>
<svg xmlns="http://www.w3.org/2000/svg" width="433" height="372" viewBox="0 0 433 372" fill="none">
  <path d="M89.6116 295.289C41.7547 268.827 22.6877 229.803 18.9548 213.273C32.435 203.022 72.0015 185.725 125.671 196.216C180 206.836 195.223 254.814 196.155 277.738C180.703 294.705 138.056 322.075 89.6116 295.289Z" fill="#224827"></path>
  <path d="M20.6111 216.343C19.8091 216.051 19.3955 215.164 19.6875 214.362L20.216 212.91C20.508 212.108 21.3948 211.694 22.1968 211.986L222.606 284.929L221.02 289.286L20.6111 216.343Z" fill="#224827"></path>
  <path d="M226.858 292.72C234.628 312.899 230.485 329.565 227.415 335.521C220.726 335.2 204.345 330.383 190.755 313.564C176.998 296.539 184.581 278.137 190.125 270.957C199.118 269.745 218.992 272.294 226.858 292.72Z" fill="#3D8146"></path>
  <path d="M227.693 334.17C227.862 334.462 227.762 334.836 227.469 335.005L226.94 335.31C226.648 335.479 226.274 335.379 226.105 335.087L183.941 262.055L185.529 261.139L227.693 334.17Z" fill="#3D8146"></path>
  <path d="M236.56 206.02C259.925 167.227 257.441 131.345 253.274 117.945C239.362 116.175 203.824 120.152 169.677 149.899C135.111 180.01 144.06 220.722 152.883 237.549C170.99 243.319 212.908 245.29 236.56 206.02Z" fill="#326238"></path>
  <path d="M253.357 120.832C253.812 120.291 253.741 119.484 253.2 119.029L252.219 118.207C251.678 117.752 250.87 117.823 250.416 118.364L136.891 253.659L139.832 256.127L253.357 120.832Z" fill="#326238"></path>
  <path d="M43.2801 170.213C28.9438 132.983 36.5879 102.233 42.2531 91.2452C54.5935 91.8378 84.8168 100.725 109.891 131.756C135.272 163.167 121.281 197.118 111.052 210.366C94.4609 212.603 57.7924 207.9 43.2801 170.213Z" fill="#326238"></path>
  <path d="M41.7392 93.7375C41.4278 93.1983 41.6126 92.5088 42.1518 92.1974L43.1282 91.6337C43.6675 91.3224 44.357 91.5071 44.6684 92.0464L122.462 226.789L119.533 228.481L41.7392 93.7375Z" fill="#326238"></path>
  <path d="M224.98 297.75C253.278 308.647 276.65 302.837 285.002 298.531C284.551 289.151 277.796 266.179 254.211 247.121C230.336 227.829 204.53 238.463 194.46 246.238C192.76 258.849 196.335 286.72 224.98 297.75Z" fill="#326238"></path>
  <path d="M283.107 298.921C283.517 299.158 284.041 299.017 284.278 298.608L284.707 297.865C284.943 297.456 284.803 296.931 284.393 296.695L181.978 237.565L180.692 239.792L283.107 298.921Z" fill="#326238"></path>
  <ellipse cx="17.9561" cy="20.0686" rx="17.9561" ry="20.0686" transform="matrix(0.5 0.866025 0.866025 -0.5 69.7607 295.03)" fill="url(#paint0_linear_0_358)"></ellipse>
  <ellipse cx="17.9561" cy="20.0686" rx="17.9561" ry="20.0686" transform="matrix(0.5 0.866025 0.866025 -0.5 188.012 247.735)" fill="url(#paint1_linear_0_358)"></ellipse>
  <path d="M94.6934 372V0H313.907C337.305 0 357.822 5.40697 375.46 16.2209C393.458 26.6744 407.496 41.2733 417.575 60.0174C427.654 78.7616 432.693 100.57 432.693 125.442C432.693 151.035 427.474 173.384 417.035 192.488C406.956 211.233 392.918 225.831 374.92 236.285C357.282 246.738 336.945 251.965 313.907 251.965H214.019V372H94.6934ZM214.019 164.913H273.952C286.551 164.913 295.91 161.669 302.029 155.18C308.508 148.692 311.748 139.14 311.748 126.523C311.748 117.872 310.308 110.843 307.428 105.436C304.908 99.6686 300.769 95.343 295.01 92.4593C289.61 89.5756 282.591 88.1337 273.952 88.1337H214.019V164.913Z" fill="url(#paint2_linear_0_358)"></path>
  <defs>
    <linearGradient id="paint0_linear_0_358" x1="17.9561" y1="0" x2="17.9561" y2="13.7311" gradientUnits="userSpaceOnUse">
      <stop stop-color="#A83143"></stop>
      <stop offset="1" stop-color="#D33F56"></stop>
    </linearGradient>
    <linearGradient id="paint1_linear_0_358" x1="17.9561" y1="0" x2="17.9561" y2="13.7311" gradientUnits="userSpaceOnUse">
      <stop stop-color="#A83143"></stop>
      <stop offset="1" stop-color="#D33F56"></stop>
    </linearGradient>
    <linearGradient id="paint2_linear_0_358" x1="263.693" y1="0" x2="263.693" y2="372" gradientUnits="userSpaceOnUse">
      <stop stop-color="#DB9E95"></stop>
      <stop offset="1" stop-color="#F0A7B4"></stop>
    </linearGradient>
  </defs>
</svg>
